<?xml version="1.0" encoding="UTF-8" standalone="no"?>
<svg
   xmlns:dc="http://purl.org/dc/elements/1.1/"
   xmlns:cc="http://creativecommons.org/ns#"
   xmlns:rdf="http://www.w3.org/1999/02/22-rdf-syntax-ns#"
   xmlns:svg="http://www.w3.org/2000/svg"
   xmlns="http://www.w3.org/2000/svg"
   xmlns:sodipodi="http://sodipodi.sourceforge.net/DTD/sodipodi-0.dtd"
   xmlns:inkscape="http://www.inkscape.org/namespaces/inkscape"
   width="800mm"
   height="400mm"
   viewBox="0 0 800 400"
   version="1.1"
   id="svg8"
   inkscape:version="1.0.2 (e86c870879, 2021-01-15, custom)"
   sodipodi:docname="django-doma-logo.svg"
   inkscape:export-filename="/home/olf/Projects/django-doma/assets/django-doma-logo.png"
   inkscape:export-xdpi="63.5"
   inkscape:export-ydpi="63.5">
  <defs
     id="defs2" />
  <sodipodi:namedview
     id="base"
     pagecolor="#ffffff"
     bordercolor="#666666"
     borderopacity="1.0"
     inkscape:pageopacity="0.0"
     inkscape:pageshadow="2"
     inkscape:zoom="0.35"
     inkscape:cx="1508.1335"
     inkscape:cy="967.5814"
     inkscape:document-units="mm"
     inkscape:current-layer="layer1"
     inkscape:document-rotation="0"
     showgrid="false"
     fit-margin-top="0"
     fit-margin-left="0"
     fit-margin-right="0"
     fit-margin-bottom="0"
     inkscape:window-width="1920"
     inkscape:window-height="1054"
     inkscape:window-x="0"
     inkscape:window-y="0"
     inkscape:window-maximized="1" />
  <metadata
     id="metadata5">
    <rdf:RDF>
      <cc:Work
         rdf:about="">
        <dc:format>image/svg+xml</dc:format>
        <dc:type
           rdf:resource="http://purl.org/dc/dcmitype/StillImage" />
        <dc:title></dc:title>
      </cc:Work>
    </rdf:RDF>
  </metadata>
  <g
     inkscape:label="Layer 1"
     inkscape:groupmode="layer"
     id="layer1"
     transform="translate(-217.54297,-28.758617)">
    <g
       id="g1365">
      <rect
         style="fill:#f4eed7;stroke:none;stroke-width:1.41478"
         id="rect1323"
         width="800"
         height="400"
         x="217.54297"
         y="28.758617" />
      <g
         id="g1334"
         transform="translate(227.0793,29.037462)">
        <path
           id="rect877-3-1-6-1-7-1-4"
           style="fill:#504416;stroke:none;stroke-width:0.882634"
           d="m 390.46368,81.245954 -10.60659,10.60659 134.3499,134.349906 10.60711,-10.6066 z m -21.21318,21.213176 -10.60658,10.60655 134.3499,134.34994 10.60658,-10.60658 z m -21.21317,21.21314 -44.09603,44.0955 c 19.60177,0.5005 26.34362,15.72814 26.34362,33.4455 0,17.1584 -9.22272,34.10232 -28.31146,34.10232 h -21.44829 v -44.13167 l -24.41194,24.41193 74.08281,74.08283 v -50.7597 h 17.3731 l 15.01356,41.07295 c 1.07239,2.89548 1.60868,7.07811 1.60868,7.07811 0,0 0.53629,-4.18263 1.60869,-7.07811 l 14.90606,-41.07295 h 17.48008 v 67.56126 h -15.97887 v -29.5982 l 0.85834,-8.14989 -12.76149,37.74809 h -12.3331 l -12.76149,-37.74809 0.96531,8.14989 v 28.7755 l 44.28877,44.28882 49.63624,-49.63577 -1.91306,-7.77162 h -13.51235 l -3.43183,13.94127 h -16.62224 l 18.8743,-67.56126 h 15.76441 l 13.64929,48.58308 29.47931,-29.47934 z m 14.84819,42.47338 c 19.62492,0 26.16687,20.48269 26.16687,35.38905 0,14.90636 -6.54195,35.38957 -26.16687,35.38957 -19.62492,0 -26.16636,-20.48321 -26.16636,-35.38957 0,-14.90637 6.54144,-35.38905 26.16636,-35.38905 z m 0,13.72681 c -9.54436,0 -10.18749,12.43959 -10.18749,21.66224 0,9.32988 0.64313,21.66276 10.18749,21.66276 9.54436,0 10.18801,-12.54736 10.18801,-21.66276 0,-9.22265 -0.64365,-21.66224 -10.18801,-21.66224 z m -66.48844,1.39423 v 40.53654 h 5.57638 c 10.18783,0 12.22511,-12.01083 12.22511,-19.94659 0,-8.25748 -0.64348,-20.58995 -11.68922,-20.58995 z m 135.03361,78.13528 -5.04052,20.58995 h 10.08052 z" />
        <path
           id="rect877-3-1-6-1-7-1"
           style="fill:#decd87;stroke:none;stroke-width:0.882634"
           d="m 390.46368,70.66262 -10.60659,10.60659 134.3499,134.3499 10.60711,-10.6066 z M 369.2505,91.8758 358.64392,102.48234 492.99382,236.83228 503.6004,226.2257 Z m -21.21317,21.21313 -44.09603,44.0955 c 19.60177,0.5005 26.34362,15.72814 26.34362,33.4455 0,17.1584 -9.22272,34.10232 -28.31146,34.10232 h -21.44829 v -44.13167 l -24.41194,24.41193 74.08281,74.08283 v -50.7597 h 17.3731 l 15.01356,41.07295 c 1.07239,2.89548 1.60868,7.07811 1.60868,7.07811 0,0 0.53629,-4.18263 1.60869,-7.07811 l 14.90606,-41.07295 h 17.48008 v 67.56126 h -15.97887 v -29.5982 l 0.85834,-8.14989 -12.76149,37.74809 h -12.3331 l -12.76149,-37.74809 0.96531,8.14989 v 28.7755 l 44.28877,44.28882 49.63624,-49.63577 -1.91306,-7.77162 h -13.51235 l -3.43183,13.94127 h -16.62224 l 18.8743,-67.56126 h 15.76441 l 13.64929,48.58308 29.47931,-29.47934 z m 14.84819,42.47338 c 19.62492,0 26.16687,20.48269 26.16687,35.38905 0,14.90636 -6.54195,35.38957 -26.16687,35.38957 -19.62492,0 -26.16636,-20.48321 -26.16636,-35.38957 0,-14.90637 6.54144,-35.38905 26.16636,-35.38905 z m 0,13.72681 c -9.54436,0 -10.18749,12.43959 -10.18749,21.66224 0,9.32988 0.64313,21.66276 10.18749,21.66276 9.54436,0 10.18801,-12.54736 10.18801,-21.66276 0,-9.22265 -0.64365,-21.66224 -10.18801,-21.66224 z m -66.48844,1.39423 v 40.53654 h 5.57638 c 10.18783,0 12.22511,-12.01083 12.22511,-19.94659 0,-8.25748 -0.64348,-20.58995 -11.68922,-20.58995 z m 135.03361,78.13528 -5.04052,20.58995 h 10.08052 z" />
        <path
           id="rect877-3-1-6-9-2"
           style="fill:#006680;stroke:none;stroke-width:0.882634"
           d="m 390.46366,60.07928 -10.60659,10.60659 134.34994,134.34993 10.60711,-10.60659 z m -21.21318,21.21318 -10.60658,10.60659 134.34994,134.34993 10.60659,-10.60659 z m -21.21317,21.21317 -44.09603,44.0955 c 19.60177,0.5005 26.34362,15.72813 26.34362,33.4455 0,17.1584 -9.22272,34.10231 -28.31146,34.10231 h -21.44829 v -44.13167 l -24.41194,24.41194 74.08281,74.08282 v -50.75969 h 17.3731 l 15.01356,41.07294 c 1.07239,2.89548 1.60868,7.07812 1.60868,7.07812 0,0 0.53629,-4.18264 1.60869,-7.07812 l 14.90606,-41.07294 h 17.48008 v 67.56125 h -15.97887 v -29.5982 l 0.85834,-8.14988 -12.76149,37.74808 h -12.3331 l -12.76149,-37.74808 0.96531,8.14988 v 28.77551 l 44.28877,44.28878 49.63624,-49.63574 -1.91306,-7.77162 h -13.51235 l -3.43183,13.94127 h -16.62224 l 18.8743,-67.56125 h 15.76441 l 13.64929,48.58308 29.47935,-29.47934 z m 14.84819,42.47338 c 19.62492,0 26.16687,20.48269 26.16687,35.38905 0,14.90636 -6.54195,35.38957 -26.16687,35.38957 -19.62492,0 -26.16636,-20.48321 -26.16636,-35.38957 0,-14.90636 6.54144,-35.38905 26.16636,-35.38905 z m 0,13.72681 c -9.54436,0 -10.18749,12.4396 -10.18749,21.66224 0,9.32988 0.64313,21.66276 10.18749,21.66276 9.54436,0 10.18801,-12.54736 10.18801,-21.66276 0,-9.22264 -0.64365,-21.66224 -10.18801,-21.66224 z m -66.48844,1.39423 v 40.53654 h 5.57638 c 10.18783,0 12.22511,-12.01083 12.22511,-19.94659 0,-8.25748 -0.64348,-20.58995 -11.68922,-20.58995 z m 135.03361,78.13528 -5.04052,20.58995 h 10.08052 z" />
        <g
           aria-label="DO"
           id="text843-6-2-9"
           style="font-size:4.23333px;line-height:0;font-family:'Delicious Heavy';-inkscape-font-specification:'Delicious Heavy, ';letter-spacing:0px;word-spacing:0px;stroke-width:0.264583"
           transform="translate(663.55848,291.86469)">
          <path
             d="m -273.27261,-97.447906 c 0,-0.7112 -0.27517,-1.320799 -1.0795,-1.320799 h -0.88477 v 2.666998 h 0.84667 c 0.75353,0 1.1176,-0.668867 1.1176,-1.346199 z m -0.635,0.0254 c 0,0.313266 -0.0804,0.787399 -0.4826,0.787399 h -0.22013 v -1.600199 h 0.2413 c 0.43603,0 0.46143,0.486833 0.46143,0.8128 z"
             style="stroke-width:0.264583"
             id="path1026-0-3" />
          <path
             d="m -270.95275,-97.435206 c 0,-0.588433 -0.25823,-1.396999 -1.03293,-1.396999 -0.7747,0 -1.03294,0.808566 -1.03294,1.396999 0,0.588433 0.25824,1.396998 1.03294,1.396998 0.7747,0 1.03293,-0.808565 1.03293,-1.396998 z m -0.63077,0 c 0,0.359833 -0.0254,0.855132 -0.40216,0.855132 -0.37677,0 -0.40217,-0.486833 -0.40217,-0.855132 0,-0.364067 0.0254,-0.855133 0.40217,-0.855133 0.37676,0 0.40216,0.491066 0.40216,0.855133 z"
             style="stroke-width:0.264583"
             id="path1028-2-1" />
        </g>
        <path
           id="rect877-3-1-6-8-3-9"
           style="fill:#2c89a0;stroke:none;stroke-width:0.882634"
           d="m 390.46366,49.49595 -10.60659,10.60659 134.34995,134.34994 10.6071,-10.60659 z m -21.21318,21.21318 -10.60658,10.60659 134.34994,134.34994 10.60659,-10.60659 z m -21.21317,21.21317 -44.09603,44.0955 c 19.60177,0.5005 26.34362,15.72814 26.34362,33.44551 0,17.1584 -9.22272,34.10231 -28.31146,34.10231 h -21.44829 v -44.13168 l -24.41194,24.41195 74.08281,74.08281 v -50.75968 h 17.3731 l 15.01356,41.07293 c 1.07239,2.89548 1.60868,7.07812 1.60868,7.07812 0,0 0.53629,-4.18264 1.60869,-7.07812 l 14.90606,-41.07293 h 17.48008 v 67.56124 h -15.97887 v -29.59819 l 0.85834,-8.14988 -12.76149,37.74807 h -12.3331 l -12.76149,-37.74807 0.96531,8.14988 v 28.77551 l 44.28877,44.28876 49.63624,-49.63573 -1.91306,-7.77161 h -13.51235 l -3.43183,13.94126 h -16.62224 l 18.8743,-67.56124 h 15.76441 l 13.64929,48.58308 29.47935,-29.47934 z m 14.84819,42.47338 c 19.62492,0 26.16687,20.48269 26.16687,35.38906 0,14.90636 -6.54195,35.38957 -26.16687,35.38957 -19.62492,0 -26.16636,-20.48321 -26.16636,-35.38957 0,-14.90637 6.54144,-35.38906 26.16636,-35.38906 z m 0,13.72681 c -9.54436,0 -10.18749,12.4396 -10.18749,21.66225 0,9.32988 0.64313,21.66276 10.18749,21.66276 9.54436,0 10.18801,-12.54736 10.18801,-21.66276 0,-9.22265 -0.64365,-21.66225 -10.18801,-21.66225 z m -66.48844,1.39423 v 40.53655 h 5.57638 c 10.18783,0 12.22511,-12.01083 12.22511,-19.94659 0,-8.25748 -0.64348,-20.58996 -11.68922,-20.58996 z m 135.03361,78.13529 -5.04052,20.58994 h 10.08052 z" />
      </g>
    </g>
  </g>
</svg>
